<svg width="320" height="32" fill="none" xmlns="http://www.w3.org/2000/svg">
  <g clip-path="url('#clip0_3_814')">
    <path d="M17.333 8.67 18.666 20 16 22.668 13.334 20l1.333-11.33h2.666Z" fill="#D3DFFA"/>
    <path d="m18 6.003-.667 2.666h-2.666L14 6.003l2-2 2 2Z" fill="#fff"/>
    <path d="m20 2.67.666 2-2 2L16 4.003 19.333.67l.667 2Zm-4 1.333-2 2-.666.667-2-2 .666-2 .667-2L16 4.003Z" fill="#D3DFFA"/>
    <path d="m24 10.67.666 1.999-2.667 4V6.002L20.666 4.67l-.666-2 4.7 1.566.632 4.433-1.333 2ZM7.301 4.236l4.7-1.566-.667 2-1.333 1.333v10.665l-2.667-4 .667-1.999-1.333-2L7.3 4.236Z" fill="#fff"/>
    <path d="M22 6.003v10.665l-3.334 3.333L17.333 8.67 18 6.003l.666.666 2-2L22 6.004Zm-8 0 .667 2.666-1.333 11.332L10 16.668V6.003l1.333-1.333 2 2L14 6.002Z" fill="#fff"/>
    <path d="m25.266 23.74 2.066-2.406-.666-7.999-2 8 .6 2.406Zm1.4 5.594.666 2h-9.999L16 30v-7.332l6-6 2.666-4-.667-1.999 1.334-2-.634-4.433L30 6.003 31.331 24l-4.666 5.332ZM6.734 23.74l.6-2.406-2-7.999-.666 8 2.066 2.406ZM16 22.669V30l-1.333 1.333H4.668l.667-2-4.667-5.332L2.002 6.003 7.3 4.236 6.668 8.67l1.333 2-.667 2 2.667 4L13.334 20 16 22.668Z" fill="#D3DFFA"/>
    <path d="M31.998 23.951 30.665 5.953a.666.666 0 0 0-.454-.583l-9.684-3.227-.561-1.684A.667.667 0 0 0 18.862.2L16 3.06 13.139.2a.667.667 0 0 0-1.104.26l-.562 1.684L1.791 5.37a.666.666 0 0 0-.456.583L.002 23.951a.668.668 0 0 0 .163.488l4.416 5.046-.546 1.637a.666.666 0 0 0 .633.878h9.999c.177 0 .346-.07.471-.195l.862-.862.862.862a.667.667 0 0 0 .471.195h10a.666.666 0 0 0 .632-.877l-.546-1.638 4.414-5.045a.667.667 0 0 0 .165-.489Zm-7.9-19.215.539 3.773-1.192 1.788a.668.668 0 0 0-.078.58l.563 1.69-1.264 1.902V6.003a.667.667 0 0 0-.195-.471L21.249 4.31l-.195-.586 3.043 1.012ZM16 21.726l-1.966-1.967L15.26 9.336h1.48l1.227 10.423L16 21.725ZM11.334 5.611l1.528 1.529a.64.64 0 0 0 .765.118l.363 1.453-1.158 9.846-2.165-2.166V6.28l.667-.667ZM16 4.945l1.262 1.262-.45 1.796h-1.624l-.45-1.796L16 4.945Zm3.168 13.613L18.01 8.712l.363-1.453a.64.64 0 0 0 .765-.118l1.528-1.529.667.667v10.113l-2.165 2.166Zm-.126-16.654.862 2.586-1.238 1.237-1.724-1.724 2.1-2.1Zm-6.084 0 2.1 2.099-1.724 1.724-1.237-1.237.861-2.586ZM10.751 4.31 9.53 5.532a.666.666 0 0 0-.196.47v8.467l-1.266-1.897.563-1.69a.667.667 0 0 0-.078-.581L7.36 8.513 7.9 4.74l3.043-1.014-.193.584Zm3.64 26.357H5.592l.325-.974 3.222-3.221 2-2-.943-.942-1.491 1.49-1.243-1.45.519-2.074a.661.661 0 0 0 0-.323L5.315 10.508l-1.294.323.64 2.559-.66 7.89a.667.667 0 0 0 .159.488l3.6 4.2-2.393 2.393-4.013-4.59 1.28-17.276L6.488 5.21l-.48 3.364a.667.667 0 0 0 .105.467l1.155 1.727-.564 1.69a.666.666 0 0 0 .079.58l2.666 4 .01-.007a.65.65 0 0 0 .073.109l5.802 5.803v6.781l-.943.943ZM5.664 17.402l.983 3.932-.246.995-1.046-1.217.31-3.71Zm20.969 10.956-2.162-2.162-.23-.23 3.599-4.2a.666.666 0 0 0 .159-.487l-.66-7.89.64-2.558-1.293-.323-2.667 10.665a.667.667 0 0 0 0 .323l.519 2.075-1.243 1.45-1.158-1.158-.942.942 2.333 2.333 2.555 2.555.325.974h-8.8l-.941-.943v-6.78l5.804-5.804a.662.662 0 0 0 .073-.11l.01.008 2.667-4a.666.666 0 0 0 .077-.58l-.565-1.69 1.152-1.729a.666.666 0 0 0 .105-.466l-.48-3.366 3.854 1.286 1.28 17.277-4.011 4.588Zm-1.28-7.024.983-3.932.309 3.708-1.046 1.22-.246-.996Z" fill="#235EE7"/>
    <path d="M12.667 24H14v1.334h-1.333V24Zm0 2.667H14V28h-1.333v-1.333Zm5.333 0h1.333V28H18v-1.333ZM18 24h1.333v1.334H18V24Z" fill="#235EE7"/>
  </g>
  <path d="M56.339 24.815c-1.512 0-2.807-.329-3.885-.987-1.078-.665-1.908-1.589-2.489-2.772-.574-1.183-.86-2.555-.86-4.116 0-1.561.286-2.933.86-4.116.581-1.183 1.41-2.104 2.489-2.761 1.078-.665 2.373-.998 3.885-.998 1.512 0 2.807.333 3.885.998 1.085.657 1.914 1.578 2.488 2.761.581 1.183.872 2.555.872 4.116 0 1.561-.29 2.933-.872 4.116-.574 1.183-1.403 2.107-2.488 2.772-1.078.658-2.373.987-3.885.987Zm0-2.384c1.015.008 1.858-.216 2.53-.672.68-.454 1.187-1.095 1.523-1.921.343-.826.514-1.792.514-2.898s-.171-2.065-.514-2.877c-.336-.819-.844-1.456-1.523-1.911-.672-.455-1.515-.69-2.53-.704-1.015-.007-1.859.217-2.53.672-.673.456-1.18 1.096-1.523 1.922-.336.826-.504 1.792-.504 2.898s.168 2.069.504 2.887c.336.813.84 1.446 1.512 1.901.679.455 1.526.69 2.54.703Zm15.73 2.384c-1.513 0-2.808-.329-3.886-.987-1.078-.665-1.907-1.589-2.488-2.772-.574-1.183-.861-2.555-.861-4.116 0-1.561.287-2.933.86-4.116.582-1.183 1.411-2.104 2.49-2.761 1.077-.665 2.372-.998 3.884-.998 1.743 0 3.196.438 4.358 1.313 1.162.867 1.977 2.04 2.446 3.517l-2.551.704c-.294-.988-.795-1.758-1.502-2.31-.707-.56-1.624-.84-2.75-.84-1.016 0-1.863.227-2.542.682-.672.455-1.18 1.095-1.522 1.921-.336.82-.508 1.782-.515 2.888 0 1.106.168 2.072.504 2.898.343.819.854 1.456 1.533 1.911.68.455 1.526.683 2.541.683 1.127 0 2.044-.28 2.751-.84.707-.56 1.208-1.33 1.502-2.31l2.551.703c-.469 1.477-1.284 2.653-2.446 3.528-1.162.868-2.615 1.302-4.358 1.302Zm15.503 0c-1.512 0-2.807-.329-3.885-.987-1.078-.665-1.907-1.589-2.489-2.772-.573-1.183-.86-2.555-.86-4.116 0-1.561.287-2.933.86-4.116.582-1.183 1.411-2.104 2.489-2.761 1.078-.665 2.373-.998 3.885-.998 1.743 0 3.195.438 4.358 1.313 1.161.867 1.977 2.04 2.446 3.517l-2.552.704c-.293-.988-.794-1.758-1.501-2.31-.707-.56-1.624-.84-2.751-.84-1.015 0-1.862.227-2.541.682-.672.455-1.18 1.095-1.523 1.921-.335.82-.507 1.782-.514 2.888 0 1.106.168 2.072.504 2.898.343.819.854 1.456 1.533 1.911.679.455 1.526.683 2.541.683 1.127 0 2.044-.28 2.751-.84.707-.56 1.208-1.33 1.502-2.31l2.551.703c-.469 1.477-1.285 2.653-2.447 3.528-1.162.868-2.614 1.302-4.357 1.302Zm7.65-.315 4.766-15.12h3.707l4.767 15.12h-2.604l-4.326-13.566h.567L97.825 24.5h-2.604Zm2.656-3.276v-2.363h7.938v2.363h-7.938Zm17.668 3.591c-1.106 0-2.103-.193-2.992-.578a5.652 5.652 0 0 1-2.184-1.648c-.567-.721-.928-1.575-1.082-2.562l2.625-.399c.224.896.683 1.589 1.376 2.079.7.49 1.505.735 2.415.735.539 0 1.046-.084 1.522-.252.476-.168.861-.413 1.155-.735.301-.322.452-.717.452-1.186 0-.21-.035-.403-.105-.578a1.374 1.374 0 0 0-.315-.483 1.95 1.95 0 0 0-.525-.378 3.571 3.571 0 0 0-.735-.304l-3.906-1.155c-.336-.098-.7-.228-1.092-.389a4.71 4.71 0 0 1-1.103-.683 3.51 3.51 0 0 1-.85-1.112c-.217-.455-.326-1.015-.326-1.68 0-.973.245-1.789.735-2.447.497-.665 1.162-1.162 1.995-1.491.84-.329 1.771-.49 2.793-.483 1.036.007 1.96.185 2.772.535a5.266 5.266 0 0 1 2.037 1.502c.546.658.931 1.453 1.155 2.384l-2.719.472a2.953 2.953 0 0 0-.651-1.354 3.04 3.04 0 0 0-1.166-.861 3.92 3.92 0 0 0-2.866-.084 2.529 2.529 0 0 0-1.04.671 1.508 1.508 0 0 0-.388 1.03c0 .37.112.675.336.913.224.231.5.416.829.556.336.133.676.245 1.019.337l2.709.756c.371.098.787.23 1.249.399a5.68 5.68 0 0 1 1.334.703 3.52 3.52 0 0 1 1.05 1.186c.28.49.42 1.113.42 1.87 0 .784-.165 1.473-.494 2.068a4.33 4.33 0 0 1-1.312 1.47 6.005 6.005 0 0 1-1.901.882 8.295 8.295 0 0 1-2.226.294Zm8.416-.315V9.38h2.53V24.5h-2.53Zm12.07.315c-1.512 0-2.807-.329-3.885-.987-1.078-.665-1.908-1.589-2.489-2.772-.574-1.183-.861-2.555-.861-4.116 0-1.561.287-2.933.861-4.116.581-1.183 1.411-2.104 2.489-2.761 1.078-.665 2.373-.998 3.885-.998 1.512 0 2.807.333 3.885.998 1.085.657 1.914 1.578 2.488 2.761.581 1.183.872 2.555.872 4.116 0 1.561-.291 2.933-.872 4.116-.574 1.183-1.403 2.107-2.488 2.772-1.078.658-2.373.987-3.885.987Zm0-2.384c1.015.008 1.858-.216 2.53-.672.679-.454 1.187-1.095 1.523-1.921.343-.826.514-1.792.514-2.898s-.171-2.065-.514-2.877c-.336-.819-.844-1.456-1.523-1.911-.672-.455-1.515-.69-2.53-.704-1.015-.007-1.859.217-2.531.672-.672.456-1.179 1.096-1.522 1.922-.336.826-.504 1.792-.504 2.898s.168 2.069.504 2.887c.336.813.84 1.446 1.512 1.901.679.455 1.526.69 2.541.703Zm9.335 2.069V9.38h2.562l7.014 10.658V9.38h2.562V24.5h-2.562l-7.014-10.658V24.5h-2.562Zm21.468.315c-1.512 0-2.807-.329-3.885-.987-1.078-.665-1.908-1.589-2.489-2.772-.574-1.183-.861-2.555-.861-4.116 0-1.561.287-2.933.861-4.116.581-1.183 1.411-2.104 2.489-2.761 1.078-.665 2.373-.998 3.885-.998 1.512 0 2.807.333 3.885.998 1.085.657 1.914 1.578 2.488 2.761.581 1.183.872 2.555.872 4.116 0 1.561-.291 2.933-.872 4.116-.574 1.183-1.403 2.107-2.488 2.772-1.078.658-2.373.987-3.885.987Zm0-2.384c1.015.008 1.858-.216 2.53-.672.679-.454 1.187-1.095 1.523-1.921.343-.826.514-1.792.514-2.898s-.171-2.065-.514-2.877c-.336-.819-.844-1.456-1.523-1.911-.672-.455-1.515-.69-2.53-.704-1.015-.007-1.859.217-2.531.672-.672.456-1.179 1.096-1.522 1.922-.336.826-.504 1.792-.504 2.898s.168 2.069.504 2.887c.336.813.84 1.446 1.512 1.901.679.455 1.526.69 2.541.703Zm15.425 2.384c-1.204 0-2.265-.245-3.182-.735a5.39 5.39 0 0 1-2.142-2.068c-.511-.89-.766-1.933-.766-3.13v-9.48l2.562-.021v9.44c0 .567.094 1.074.283 1.522.196.448.459.83.788 1.145.329.308.707.542 1.134.703a3.72 3.72 0 0 0 1.323.241c.469 0 .913-.08 1.333-.241a3.539 3.539 0 0 0 1.134-.714c.329-.315.588-.697.777-1.145.189-.447.284-.951.284-1.511V9.38h2.562v9.502c0 1.197-.259 2.24-.777 3.13a5.3 5.3 0 0 1-2.142 2.068c-.91.49-1.967.735-3.171.735Zm12.657-.315V11.753h-4.893V9.38h12.316v2.373h-4.893V24.5h-2.53Zm9.102 0V9.38h9.104v2.53h-6.573v3.77h5.313v2.52h-5.313v6.3h-2.531Zm11.203 0V9.38h2.53V24.5h-2.53Zm9.308 0V11.753h-4.893V9.38h12.317v2.373h-4.893V24.5h-2.531Z" fill="#161616"/>
  <path d="M233.633 24.5V9.38h5.701c.147 0 .305.007.473.021.175.007.357.028.546.063.756.119 1.403.392 1.942.819.546.42.963.952 1.25 1.596.287.637.43 1.34.43 2.11 0 1.113-.297 2.083-.892 2.909-.595.826-1.425 1.351-2.489 1.575l-.346.137h-5.408v5.89h-1.207Zm9.313 0-2.982-6.153 1.124-.567 3.276 6.72h-1.418Zm-8.106-7.077h4.473a6.193 6.193 0 0 0 .935-.084c.546-.112 1.001-.333 1.365-.662.364-.335.637-.738.819-1.207.182-.469.273-.963.273-1.48 0-.518-.091-1.008-.273-1.47a3.101 3.101 0 0 0-.819-1.197c-.364-.337-.819-.56-1.365-.673a5.037 5.037 0 0 0-.935-.095h-4.473v6.868Zm11.836 7.077V9.38h9.345v1.176h-8.138v5.743h6.878v1.177h-6.878v5.848h8.138V24.5h-9.345Zm11.874 0V9.38h1.218l8.757 12.967V9.38h1.218V24.5h-1.218l-8.757-12.989V24.5h-1.218Zm18.287 0V10.556h-5.418V9.38h12.044v1.176h-5.418V24.5h-1.208Zm6.851 0 5.355-15.12h1.502L295.9 24.5h-1.281l-5.145-14.49h.609l-5.114 14.49h-1.281Zm2.216-3.801v-1.145h7.77V20.7h-7.77Zm12.087 3.801V9.38h1.208v13.944h7.35V24.5h-8.558Zm15.486.315c-1.036 0-1.97-.172-2.803-.515a5.43 5.43 0 0 1-2.058-1.459c-.539-.63-.9-1.379-1.082-2.247l1.239-.21a4.005 4.005 0 0 0 1.659 2.383c.854.582 1.88.872 3.077.872.812 0 1.529-.13 2.152-.389.623-.259 1.11-.622 1.46-1.091.35-.476.525-1.03.525-1.66 0-.454-.084-.836-.252-1.144a2.223 2.223 0 0 0-.63-.756 3.424 3.424 0 0 0-.83-.483 7.656 7.656 0 0 0-.829-.305l-3.801-1.134a6.84 6.84 0 0 1-1.355-.546 4.323 4.323 0 0 1-.997-.766 3.271 3.271 0 0 1-.62-.998 3.486 3.486 0 0 1-.21-1.239c0-.812.217-1.522.651-2.131.434-.609 1.029-1.082 1.785-1.418.763-.343 1.638-.514 2.625-.514.994.007 1.887.193 2.678.556a4.98 4.98 0 0 1 1.942 1.523c.511.658.84 1.438.987 2.341l-1.249.221a3.735 3.735 0 0 0-.756-1.816 4.025 4.025 0 0 0-1.533-1.208c-.623-.287-1.316-.43-2.079-.43-.735-.008-1.386.115-1.953.367-.56.252-1.001.591-1.323 1.018-.322.428-.483.91-.483 1.45 0 .56.15 1.008.451 1.344.308.329.683.588 1.124.777.448.188.875.342 1.281.461l3.045.904c.287.084.63.203 1.029.357.399.154.791.374 1.176.661.385.28.703.654.955 1.123.259.463.389 1.044.389 1.744 0 .679-.13 1.288-.389 1.827a3.84 3.84 0 0 1-1.113 1.375 5.226 5.226 0 0 1-1.711.85 7.35 7.35 0 0 1-2.174.305Z" fill="#235EE7"/>
  <defs>
    <clipPath id="clip0_3_814">
      <path fill="#fff" d="M0 0h32v32H0z"/>
    </clipPath>
  </defs>
</svg>
