<svg width="320" height="32" viewBox="0 0 320 32" fill="none" xmlns="http://www.w3.org/2000/svg">
<g clip-path="url(#clip0_12_2787)">
<path d="M17.3336 8.66919L18.6667 20.0012L16.0002 22.6677L13.334 20.0012L14.6671 8.66919H17.3336Z" fill="#D3DFFA"/>
<path d="M17.9996 6.00271L17.3331 8.66917H14.6667L14 6.00271L15.9998 4.00293L17.9996 6.00271Z" fill="white"/>
<path d="M19.9996 2.66995L20.6662 4.66973L18.6665 6.66952L16 4.00306L19.3331 0.670166L19.9996 2.66995Z" fill="#D3DFFA"/>
<path d="M16 4.00306L14.0002 6.00284L13.3338 6.66952L11.334 4.66973L12.0004 2.66995L12.6671 0.670166L16 4.00306Z" fill="#D3DFFA"/>
<path d="M23.9991 10.6691L24.6658 12.6688L21.9993 16.6684V6.00281L20.6662 4.66971L19.9995 2.66992L24.6992 4.2364L25.3324 8.66927L23.9991 10.6691Z" fill="white"/>
<path d="M7.3012 4.2364L12.0006 2.66992L11.3342 4.66971L10.0009 6.00281V16.6684L7.33464 12.6688L8.00108 10.6691L6.66797 8.66927L7.3012 4.2364Z" fill="white"/>
<path d="M21.9995 6.00279V16.6684L18.6666 20.0013L17.3335 8.66924L17.9999 6.00279L18.6666 6.66946L20.6664 4.66968L21.9995 6.00279Z" fill="white"/>
<path d="M14.0001 6.00279L14.6667 8.66924L13.3336 20.0013L10.0005 16.6684V6.00279L11.3338 4.66968L13.3336 6.66946L14.0001 6.00279Z" fill="white"/>
<path d="M25.2658 23.7408L27.3323 21.3343L26.6656 13.3352L24.6658 21.3343L25.2658 23.7408ZM26.6656 29.3335L27.3323 31.3332H17.3334L16 30.0001V22.6677L21.9993 16.6683L24.6658 12.6688L23.9991 10.669L25.3325 8.6692L24.6993 4.23633L29.9985 6.00274L31.3318 24.0008L26.6656 29.3335Z" fill="#D3DFFA"/>
<path d="M6.73445 23.7408L7.33448 21.3343L5.3347 13.3352L4.66802 21.3343L6.73445 23.7408ZM16 22.6677V30.0001L14.6669 31.3332H4.66802L5.3347 29.3335L0.668457 24.0008L2.00156 6.00274L7.30104 4.23633L6.66781 8.6692L8.00091 10.669L7.33448 12.6688L10.0007 16.6683L13.3338 20.0012L16 22.6677Z" fill="#D3DFFA"/>
<path d="M31.9983 23.9515L30.6652 5.95342C30.6454 5.68514 30.4662 5.45519 30.2111 5.37024L20.5269 2.14256L19.9657 0.459391C19.8927 0.240177 19.7113 0.0744232 19.4865 0.0212064C19.2616 -0.0317664 19.0251 0.035365 18.8618 0.198677L16 3.06043L13.1385 0.198677C12.975 0.035365 12.7387 -0.0317664 12.5138 0.0212064C12.289 0.0744232 12.1076 0.240177 12.0346 0.459391L11.4732 2.14329L1.79087 5.37024C1.53504 5.45445 1.35513 5.68465 1.33511 5.95342L0.00175906 23.9515C-0.011179 24.1294 0.0476525 24.3052 0.165071 24.4395L4.58134 29.4848L4.0355 31.1221C3.96739 31.3254 4.00133 31.549 4.1268 31.7231C4.25227 31.8971 4.45367 32.0002 4.668 31.9999H14.6669C14.8437 31.9999 15.0133 31.9296 15.1383 31.8046L16 30.9427L16.862 31.8046C16.987 31.9296 17.1566 31.9999 17.3334 31.9999H27.3323C27.5464 31.9999 27.7478 31.8971 27.873 31.7233C27.9985 31.5495 28.0324 31.3259 27.9648 31.1228L27.419 29.4855L31.833 24.4402C31.9514 24.3059 32.011 24.1299 31.9983 23.9515ZM24.0973 4.73627L24.6365 8.50906L23.4445 10.2969C23.3305 10.4681 23.3017 10.6824 23.3667 10.8777L23.9298 12.5679L22.666 14.4686V6.00274C22.666 5.826 22.5957 5.65658 22.4708 5.5316L21.249 4.30956L21.0537 3.72369L24.0973 4.73627ZM16 21.7252L14.0337 19.7586L15.2596 9.33563H16.7407L17.9666 19.7586L16 21.7252ZM11.334 5.61215L12.8624 7.14055C13.0619 7.34732 13.3746 7.39541 13.627 7.2587L13.9902 8.7124L12.8324 18.5575L10.6674 16.3922V6.27883L11.334 5.61215ZM16 4.94548L17.2619 6.2073L16.8127 8.00252H15.1876L14.7389 6.2073L16 4.94548ZM19.1676 18.5575L18.0098 8.7124L18.3731 7.2587C18.6257 7.39541 18.9384 7.34732 19.1379 7.14055L20.6663 5.61215L21.3329 6.27883V16.3922L19.1676 18.5575ZM19.0417 1.90381L19.9037 4.48972L18.6665 5.72689L16.9425 4.00295L19.0417 1.90381ZM12.9584 1.90381L15.0575 4.00295L13.3338 5.72689L12.0966 4.48972L12.9584 1.90381ZM10.7513 4.30956L9.52953 5.5316C9.40455 5.65658 9.33424 5.826 9.33424 6.00274V14.4686L8.06754 12.5721L8.63095 10.8816C8.69588 10.6863 8.66708 10.4722 8.55283 10.3009L7.36107 8.51321L7.90032 4.74018L10.9439 3.72564L10.7513 4.30956ZM14.3908 30.6668H5.59246L5.91713 29.6935L9.13895 26.472L11.1387 24.4722L10.196 23.5296L8.70492 25.0207L7.46238 23.5709L7.98087 21.4957C8.00748 21.3897 8.00748 21.2792 7.98087 21.1732L5.31466 10.5076L4.02134 10.8308L4.66141 13.3899L4.00133 21.2792C3.98668 21.4569 4.0438 21.6331 4.16 21.7684L7.75971 25.9679L5.36666 28.3609L1.35366 23.7716L2.63355 6.49463L6.48836 5.2101L6.00794 8.57448C5.98402 8.73779 6.02161 8.90403 6.11316 9.04122L7.26782 10.7676L6.7044 12.4581C6.63947 12.6534 6.66827 12.8675 6.78252 13.0386L9.44873 17.0382L9.45947 17.0308C9.47998 17.0694 9.50439 17.1058 9.53222 17.1395L15.3336 22.9435V29.7243L14.3908 30.6668ZM5.66447 17.4016L6.64703 21.3343L6.40121 22.3291L5.35518 21.1117L5.66447 17.4016ZM26.6329 28.3585L24.4705 26.1959L24.2406 25.9659L27.84 21.7664C27.9558 21.6317 28.0129 21.4561 27.9987 21.2792L27.3389 13.3899L27.9787 10.8308L26.6856 10.5076L24.0192 21.1732C23.9928 21.2792 23.9928 21.3897 24.0192 21.4957L24.5379 23.5709L23.2954 25.0207L22.1375 23.8629L21.1948 24.8054L23.528 27.1384L26.0829 29.6935L26.4076 30.6668H17.6085L16.6667 29.7243V22.9435L22.4708 17.1395C22.4986 17.1058 22.5228 17.0694 22.5435 17.0308L22.554 17.0382L25.2205 13.0386C25.3347 12.8675 25.3635 12.6534 25.2983 12.4581L24.7325 10.7676L25.8849 9.03903C25.9767 8.90208 26.0141 8.73559 25.9904 8.57253L25.5097 5.20741L29.3645 6.49267L30.6444 23.7696L26.6329 28.3585ZM25.353 21.3343L26.3356 17.4016L26.6449 21.1097L25.5991 22.3291L25.353 21.3343Z" fill="#235EE7"/>
<path d="M12.667 24.0007H14.0001V25.3338H12.667V24.0007Z" fill="#235EE7"/>
<path d="M12.667 26.6672H14.0001V28.0003H12.667V26.6672Z" fill="#235EE7"/>
<path d="M18 26.6672H19.3334V28.0003H18V26.6672Z" fill="#235EE7"/>
<path d="M18 24.0007H19.3334V25.3338H18V24.0007Z" fill="#235EE7"/>
</g>
<path d="M56.3386 24.815C54.8266 24.815 53.5316 24.486 52.4536 23.828C51.3756 23.163 50.5461 22.239 49.9651 21.056C49.3911 19.873 49.1041 18.501 49.1041 16.94C49.1041 15.379 49.3911 14.007 49.9651 12.824C50.5461 11.641 51.3756 10.7205 52.4536 10.0625C53.5316 9.3975 54.8266 9.065 56.3386 9.065C57.8506 9.065 59.1456 9.3975 60.2236 10.0625C61.3086 10.7205 62.1381 11.641 62.7121 12.824C63.2931 14.007 63.5836 15.379 63.5836 16.94C63.5836 18.501 63.2931 19.873 62.7121 21.056C62.1381 22.239 61.3086 23.163 60.2236 23.828C59.1456 24.486 57.8506 24.815 56.3386 24.815ZM56.3386 22.4315C57.3536 22.4385 58.1971 22.2145 58.8691 21.7595C59.5481 21.3045 60.0556 20.664 60.3916 19.838C60.7346 19.012 60.9061 18.046 60.9061 16.94C60.9061 15.834 60.7346 14.875 60.3916 14.063C60.0556 13.244 59.5481 12.607 58.8691 12.152C58.1971 11.697 57.3536 11.4625 56.3386 11.4485C55.3236 11.4415 54.4801 11.6655 53.8081 12.1205C53.1361 12.5755 52.6286 13.216 52.2856 14.042C51.9496 14.868 51.7816 15.834 51.7816 16.94C51.7816 18.046 51.9496 19.0085 52.2856 19.8275C52.6216 20.6395 53.1256 21.273 53.7976 21.728C54.4766 22.183 55.3236 22.4175 56.3386 22.4315ZM72.0681 24.815C70.5561 24.815 69.2611 24.486 68.1831 23.828C67.1051 23.163 66.2756 22.239 65.6946 21.056C65.1206 19.873 64.8336 18.501 64.8336 16.94C64.8336 15.379 65.1206 14.007 65.6946 12.824C66.2756 11.641 67.1051 10.7205 68.1831 10.0625C69.2611 9.3975 70.5561 9.065 72.0681 9.065C73.8111 9.065 75.2636 9.5025 76.4256 10.3775C77.5876 11.2455 78.4031 12.418 78.8721 13.895L76.3206 14.5985C76.0266 13.6115 75.5261 12.8415 74.8191 12.2885C74.1121 11.7285 73.1951 11.4485 72.0681 11.4485C71.0531 11.4485 70.2061 11.676 69.5271 12.131C68.8551 12.586 68.3476 13.2265 68.0046 14.0525C67.6686 14.8715 67.4971 15.834 67.4901 16.94C67.4901 18.046 67.6581 19.012 67.9941 19.838C68.3371 20.657 68.8481 21.294 69.5271 21.749C70.2061 22.204 71.0531 22.4315 72.0681 22.4315C73.1951 22.4315 74.1121 22.1515 74.8191 21.5915C75.5261 21.0315 76.0266 20.2615 76.3206 19.2815L78.8721 19.985C78.4031 21.462 77.5876 22.638 76.4256 23.513C75.2636 24.381 73.8111 24.815 72.0681 24.815ZM87.572 24.815C86.06 24.815 84.765 24.486 83.687 23.828C82.609 23.163 81.7795 22.239 81.1985 21.056C80.6245 19.873 80.3375 18.501 80.3375 16.94C80.3375 15.379 80.6245 14.007 81.1985 12.824C81.7795 11.641 82.609 10.7205 83.687 10.0625C84.765 9.3975 86.06 9.065 87.572 9.065C89.315 9.065 90.7675 9.5025 91.9295 10.3775C93.0915 11.2455 93.907 12.418 94.376 13.895L91.8245 14.5985C91.5305 13.6115 91.03 12.8415 90.323 12.2885C89.616 11.7285 88.699 11.4485 87.572 11.4485C86.557 11.4485 85.71 11.676 85.031 12.131C84.359 12.586 83.8515 13.2265 83.5085 14.0525C83.1725 14.8715 83.001 15.834 82.994 16.94C82.994 18.046 83.162 19.012 83.498 19.838C83.841 20.657 84.352 21.294 85.031 21.749C85.71 22.204 86.557 22.4315 87.572 22.4315C88.699 22.4315 89.616 22.1515 90.323 21.5915C91.03 21.0315 91.5305 20.2615 91.8245 19.2815L94.376 19.985C93.907 21.462 93.0915 22.638 91.9295 23.513C90.7675 24.381 89.315 24.815 87.572 24.815ZM95.2213 24.5L99.9883 9.38H103.695L108.462 24.5H105.858L101.532 10.934H102.099L97.8253 24.5H95.2213ZM97.8778 21.224V18.8615H105.816V21.224H97.8778ZM115.546 24.815C114.44 24.815 113.443 24.6225 112.554 24.2375C111.672 23.8525 110.944 23.303 110.37 22.589C109.803 21.868 109.442 21.014 109.288 20.027L111.913 19.628C112.137 20.524 112.596 21.217 113.289 21.707C113.989 22.197 114.794 22.442 115.704 22.442C116.243 22.442 116.75 22.358 117.226 22.19C117.702 22.022 118.087 21.777 118.381 21.455C118.682 21.133 118.833 20.7375 118.833 20.2685C118.833 20.0585 118.798 19.866 118.728 19.691C118.658 19.509 118.553 19.348 118.413 19.208C118.28 19.068 118.105 18.942 117.888 18.83C117.678 18.711 117.433 18.6095 117.153 18.5255L113.247 17.3705C112.911 17.2725 112.547 17.143 112.155 16.982C111.77 16.814 111.402 16.5865 111.052 16.2995C110.709 16.0055 110.426 15.6345 110.202 15.1865C109.985 14.7315 109.876 14.1715 109.876 13.5065C109.876 12.5335 110.121 11.718 110.611 11.06C111.108 10.395 111.773 9.898 112.606 9.569C113.446 9.24 114.377 9.079 115.399 9.086C116.435 9.093 117.359 9.2715 118.171 9.6215C118.983 9.9645 119.662 10.465 120.208 11.123C120.754 11.781 121.139 12.5755 121.363 13.5065L118.644 13.979C118.532 13.447 118.315 12.9955 117.993 12.6245C117.678 12.2465 117.289 11.9595 116.827 11.7635C116.372 11.5675 115.886 11.4625 115.368 11.4485C114.864 11.4415 114.395 11.5185 113.961 11.6795C113.534 11.8335 113.187 12.0575 112.921 12.3515C112.662 12.6455 112.533 12.9885 112.533 13.3805C112.533 13.7515 112.645 14.056 112.869 14.294C113.093 14.525 113.369 14.7105 113.698 14.8505C114.034 14.9835 114.374 15.0955 114.717 15.1865L117.426 15.9425C117.797 16.0405 118.213 16.1735 118.675 16.3415C119.137 16.5095 119.582 16.744 120.009 17.045C120.436 17.346 120.786 17.7415 121.059 18.2315C121.339 18.7215 121.479 19.3445 121.479 20.1005C121.479 20.8845 121.314 21.574 120.985 22.169C120.663 22.757 120.226 23.247 119.673 23.639C119.12 24.031 118.486 24.325 117.772 24.521C117.065 24.717 116.323 24.815 115.546 24.815ZM123.962 24.5V9.38H126.492V24.5H123.962ZM136.032 24.815C134.52 24.815 133.225 24.486 132.147 23.828C131.069 23.163 130.239 22.239 129.658 21.056C129.084 19.873 128.797 18.501 128.797 16.94C128.797 15.379 129.084 14.007 129.658 12.824C130.239 11.641 131.069 10.7205 132.147 10.0625C133.225 9.3975 134.52 9.065 136.032 9.065C137.544 9.065 138.839 9.3975 139.917 10.0625C141.002 10.7205 141.831 11.641 142.405 12.824C142.986 14.007 143.277 15.379 143.277 16.94C143.277 18.501 142.986 19.873 142.405 21.056C141.831 22.239 141.002 23.163 139.917 23.828C138.839 24.486 137.544 24.815 136.032 24.815ZM136.032 22.4315C137.047 22.4385 137.89 22.2145 138.562 21.7595C139.241 21.3045 139.749 20.664 140.085 19.838C140.428 19.012 140.599 18.046 140.599 16.94C140.599 15.834 140.428 14.875 140.085 14.063C139.749 13.244 139.241 12.607 138.562 12.152C137.89 11.697 137.047 11.4625 136.032 11.4485C135.017 11.4415 134.173 11.6655 133.501 12.1205C132.829 12.5755 132.322 13.216 131.979 14.042C131.643 14.868 131.475 15.834 131.475 16.94C131.475 18.046 131.643 19.0085 131.979 19.8275C132.315 20.6395 132.819 21.273 133.491 21.728C134.17 22.183 135.017 22.4175 136.032 22.4315ZM145.367 24.5V9.38H147.929L154.943 20.0375V9.38H157.505V24.5H154.943L147.929 13.8425V24.5H145.367ZM166.835 24.815C165.323 24.815 164.028 24.486 162.95 23.828C161.872 23.163 161.042 22.239 160.461 21.056C159.887 19.873 159.6 18.501 159.6 16.94C159.6 15.379 159.887 14.007 160.461 12.824C161.042 11.641 161.872 10.7205 162.95 10.0625C164.028 9.3975 165.323 9.065 166.835 9.065C168.347 9.065 169.642 9.3975 170.72 10.0625C171.805 10.7205 172.634 11.641 173.208 12.824C173.789 14.007 174.08 15.379 174.08 16.94C174.08 18.501 173.789 19.873 173.208 21.056C172.634 22.239 171.805 23.163 170.72 23.828C169.642 24.486 168.347 24.815 166.835 24.815ZM166.835 22.4315C167.85 22.4385 168.693 22.2145 169.365 21.7595C170.044 21.3045 170.552 20.664 170.888 19.838C171.231 19.012 171.402 18.046 171.402 16.94C171.402 15.834 171.231 14.875 170.888 14.063C170.552 13.244 170.044 12.607 169.365 12.152C168.693 11.697 167.85 11.4625 166.835 11.4485C165.82 11.4415 164.976 11.6655 164.304 12.1205C163.632 12.5755 163.125 13.216 162.782 14.042C162.446 14.868 162.278 15.834 162.278 16.94C162.278 18.046 162.446 19.0085 162.782 19.8275C163.118 20.6395 163.622 21.273 164.294 21.728C164.973 22.183 165.82 22.4175 166.835 22.4315ZM182.26 24.815C181.056 24.815 179.995 24.57 179.078 24.08C178.168 23.59 177.454 22.9005 176.936 22.0115C176.425 21.1225 176.17 20.0795 176.17 18.8825V9.401L178.732 9.38V18.8195C178.732 19.3865 178.826 19.894 179.015 20.342C179.211 20.79 179.474 21.1715 179.803 21.4865C180.132 21.7945 180.51 22.029 180.937 22.19C181.364 22.351 181.805 22.4315 182.26 22.4315C182.729 22.4315 183.173 22.351 183.593 22.19C184.02 22.022 184.398 21.784 184.727 21.476C185.056 21.161 185.315 20.7795 185.504 20.3315C185.693 19.8835 185.788 19.3795 185.788 18.8195V9.38H188.35V18.8825C188.35 20.0795 188.091 21.1225 187.573 22.0115C187.062 22.9005 186.348 23.59 185.431 24.08C184.521 24.57 183.464 24.815 182.26 24.815ZM194.917 24.5V11.753H190.024V9.38H202.34V11.753H197.447V24.5H194.917ZM204.019 24.5V9.38H213.123V11.9105H206.55V15.68H211.863V18.2H206.55V24.5H204.019ZM215.222 24.5V9.38H217.752V24.5H215.222ZM224.53 24.5V11.753H219.637V9.38H231.954V11.753H227.061V24.5H224.53Z" fill="white"/>
<path d="M233.633 24.5V9.38H239.334C239.481 9.38 239.639 9.387 239.807 9.401C239.982 9.408 240.164 9.429 240.353 9.464C241.109 9.583 241.756 9.856 242.295 10.283C242.841 10.703 243.258 11.235 243.545 11.879C243.832 12.516 243.975 13.2195 243.975 13.9895C243.975 15.1025 243.678 16.072 243.083 16.898C242.488 17.724 241.658 18.249 240.594 18.473L240.248 18.6095H234.84V24.5H233.633ZM242.946 24.5L239.964 18.347L241.088 17.78L244.364 24.5H242.946ZM234.84 17.423H239.313C239.439 17.423 239.583 17.416 239.744 17.402C239.912 17.388 240.08 17.367 240.248 17.339C240.794 17.227 241.249 17.0065 241.613 16.6775C241.977 16.3415 242.25 15.939 242.432 15.47C242.614 15.001 242.705 14.5075 242.705 13.9895C242.705 13.4715 242.614 12.9815 242.432 12.5195C242.25 12.0505 241.977 11.6515 241.613 11.3225C241.249 10.9865 240.794 10.7625 240.248 10.6505C240.08 10.6155 239.912 10.591 239.744 10.577C239.583 10.563 239.439 10.556 239.313 10.556H234.84V17.423ZM246.676 24.5V9.38H256.021V10.556H247.883V16.2995H254.761V17.4755H247.883V23.324H256.021V24.5H246.676ZM258.55 24.5V9.38H259.768L268.525 22.3475V9.38H269.743V24.5H268.525L259.768 11.5115V24.5H258.55ZM276.837 24.5V10.556H271.419V9.38H283.463V10.556H278.045V24.5H276.837ZM283.688 24.5L289.043 9.38H290.545L295.9 24.5H294.619L289.474 10.01H290.083L284.969 24.5H283.688ZM285.904 20.699V19.5545H293.674V20.699H285.904ZM297.991 24.5V9.38H299.199V23.324H306.549V24.5H297.991ZM313.477 24.815C312.441 24.815 311.507 24.6435 310.674 24.3005C309.848 23.9575 309.162 23.471 308.616 22.841C308.077 22.211 307.716 21.462 307.534 20.594L308.773 20.384C309.032 21.392 309.585 22.1865 310.432 22.7675C311.286 23.3485 312.312 23.639 313.509 23.639C314.321 23.639 315.038 23.5095 315.661 23.2505C316.284 22.9915 316.771 22.6275 317.121 22.1585C317.471 21.6825 317.646 21.1295 317.646 20.4995C317.646 20.0445 317.562 19.663 317.394 19.355C317.233 19.047 317.023 18.795 316.764 18.599C316.505 18.396 316.228 18.235 315.934 18.116C315.64 17.99 315.364 17.8885 315.105 17.8115L311.304 16.6775C310.8 16.5305 310.348 16.3485 309.949 16.1315C309.557 15.9075 309.225 15.652 308.952 15.365C308.686 15.071 308.479 14.7385 308.332 14.3675C308.192 13.9965 308.122 13.5835 308.122 13.1285C308.122 12.3165 308.339 11.606 308.773 10.997C309.207 10.388 309.802 9.9155 310.558 9.5795C311.321 9.2365 312.196 9.065 313.183 9.065C314.177 9.072 315.07 9.2575 315.861 9.6215C316.652 9.9785 317.299 10.486 317.803 11.144C318.314 11.802 318.643 12.5825 318.79 13.4855L317.541 13.706C317.443 13.013 317.191 12.4075 316.785 11.8895C316.386 11.3715 315.875 10.969 315.252 10.682C314.629 10.395 313.936 10.2515 313.173 10.2515C312.438 10.2445 311.787 10.367 311.22 10.619C310.66 10.871 310.219 11.2105 309.897 11.6375C309.575 12.0645 309.414 12.5475 309.414 13.0865C309.414 13.6465 309.564 14.0945 309.865 14.4305C310.173 14.7595 310.548 15.0185 310.989 15.2075C311.437 15.3965 311.864 15.5505 312.27 15.6695L315.315 16.5725C315.602 16.6565 315.945 16.7755 316.344 16.9295C316.743 17.0835 317.135 17.304 317.52 17.591C317.905 17.871 318.223 18.2455 318.475 18.7145C318.734 19.1765 318.864 19.7575 318.864 20.4575C318.864 21.1365 318.734 21.7455 318.475 22.2845C318.216 22.8235 317.845 23.282 317.362 23.66C316.879 24.031 316.309 24.3145 315.651 24.5105C314.993 24.7135 314.268 24.815 313.477 24.815Z" fill="#235EE7"/>
<defs>
<clipPath id="clip0_12_2787">
<rect width="32" height="32" fill="white"/>
</clipPath>
</defs>
</svg>
