<svg width="60" height="60" fill="none" xmlns="http://www.w3.org/2000/svg">
  <path d="M27.188 16.875V37.5a11.262 11.262 0 0 1-11.25 11.25 1.875 1.875 0 1 1 0-3.75 7.5 7.5 0 0 0 7.5-7.5v-1.875H9.374a3.75 3.75 0 0 1-3.75-3.75v-15a3.75 3.75 0 0 1 3.75-3.75h14.063a3.75 3.75 0 0 1 3.75 3.75Zm23.437-3.75H36.562a3.75 3.75 0 0 0-3.75 3.75v15a3.75 3.75 0 0 0 3.75 3.75h14.063V37.5a7.5 7.5 0 0 1-7.5 7.5 1.875 1.875 0 1 0 0 3.75 11.262 11.262 0 0 0 11.25-11.25V16.875a3.75 3.75 0 0 0-3.75-3.75Z" fill="#235EE7"/>
</svg>
