<svg width="142" height="26" fill="none" xmlns="http://www.w3.org/2000/svg">
  <path d="m13.508 20.698 5.815 3.692c.75.473 1.673-.23 1.453-1.096l-1.684-6.622a1.003 1.003 0 0 1 .334-1.016l5.215-4.35c.681-.565.335-1.707-.553-1.765l-6.808-.438a.957.957 0 0 1-.842-.623L13.9 2.088a.958.958 0 0 0-1.8 0L9.562 8.48a.958.958 0 0 1-.842.623l-6.808.438c-.888.058-1.234 1.2-.553 1.765l5.215 4.35a1.004 1.004 0 0 1 .334 1.016l-1.557 6.137c-.266 1.039.842 1.881 1.73 1.316l5.411-3.427a.946.946 0 0 1 1.016 0Zm29 0 5.815 3.692c.75.473 1.673-.23 1.453-1.096l-1.684-6.622a1.003 1.003 0 0 1 .334-1.016l5.215-4.35c.681-.565.335-1.707-.553-1.765l-6.808-.438a.957.957 0 0 1-.842-.623L42.9 2.088a.958.958 0 0 0-1.8 0L38.562 8.48a.958.958 0 0 1-.842.623l-6.808.438c-.888.058-1.234 1.2-.553 1.765l5.215 4.35a1.004 1.004 0 0 1 .334 1.016l-1.557 6.137c-.266 1.039.842 1.881 1.73 1.316l5.411-3.427a.946.946 0 0 1 1.016 0Zm29 0 5.815 3.692c.75.473 1.673-.23 1.453-1.096l-1.684-6.622a1.003 1.003 0 0 1 .334-1.016l5.215-4.35c.681-.565.335-1.707-.553-1.765l-6.808-.438a.957.957 0 0 1-.842-.623L71.9 2.088a.958.958 0 0 0-1.8 0L67.562 8.48a.958.958 0 0 1-.842.623l-6.808.438c-.888.058-1.234 1.2-.553 1.765l5.215 4.35a1.004 1.004 0 0 1 .334 1.016l-1.557 6.137c-.266 1.039.842 1.881 1.73 1.316l5.411-3.427a.946.946 0 0 1 1.016 0Zm29 0 5.815 3.692c.75.473 1.673-.23 1.453-1.096l-1.684-6.622a1.001 1.001 0 0 1 .334-1.016l5.215-4.35c.681-.565.335-1.707-.553-1.765l-6.808-.438a.955.955 0 0 1-.842-.623L100.9 2.088a.957.957 0 0 0-1.8 0L96.562 8.48a.958.958 0 0 1-.842.623l-6.808.438c-.888.058-1.234 1.2-.553 1.765l5.215 4.35a1.004 1.004 0 0 1 .334 1.016l-1.557 6.137c-.266 1.039.842 1.881 1.73 1.316l5.411-3.427a.946.946 0 0 1 1.016 0Zm29 0 5.815 3.692c.75.473 1.673-.23 1.453-1.096l-1.684-6.622a1.001 1.001 0 0 1 .334-1.016l5.215-4.35c.681-.565.335-1.707-.553-1.765l-6.808-.438a.955.955 0 0 1-.842-.623L129.9 2.088a.957.957 0 0 0-1.8 0l-2.538 6.392a.958.958 0 0 1-.842.623l-6.808.438c-.888.058-1.234 1.2-.553 1.765l5.215 4.35a1.007 1.007 0 0 1 .334 1.016l-1.557 6.137c-.266 1.039.842 1.881 1.73 1.316l5.411-3.427a.947.947 0 0 1 1.016 0Z" fill="#FAA61A" stroke="#FAA61A" stroke-width="2" stroke-linecap="round" stroke-linejoin="round"/>
</svg>
