<svg width="26" height="25" viewBox="0 0 26 25" fill="none" xmlns="http://www.w3.org/2000/svg">
<path d="M23.9578 8.87794L11.4177 21.417C11.2726 21.5621 11.1004 21.6773 10.9108 21.7558C10.7212 21.8344 10.518 21.8748 10.3128 21.8748C10.1075 21.8748 9.90432 21.8344 9.71473 21.7558C9.52513 21.6773 9.35287 21.5621 9.20777 21.417L2.21363 14.3858C1.92113 14.0928 1.75684 13.6957 1.75684 13.2818C1.75684 12.8678 1.92113 12.4707 2.21363 12.1777L4.55738 9.834C4.8494 9.5419 5.24519 9.37731 5.65822 9.37622C6.07125 9.37512 6.46792 9.5376 6.76148 9.82814L10.3396 13.2725L10.3504 13.2832L19.406 4.36036C19.6989 4.06875 20.0953 3.90503 20.5086 3.90503C20.9218 3.90503 21.3183 4.06875 21.6111 4.36036L23.9548 6.66115C24.1012 6.80617 24.2174 6.97871 24.2968 7.16883C24.3762 7.35895 24.4172 7.5629 24.4175 7.76893C24.4178 7.97497 24.3773 8.17903 24.2984 8.36935C24.2195 8.55968 24.1037 8.73253 23.9578 8.87794Z" fill="#235EE7"/>
</svg>
