<svg width="26" height="25" viewBox="0 0 26 25" fill="none" xmlns="http://www.w3.org/2000/svg">
<path d="M23.9578 8.87794L11.4178 21.417C11.2727 21.5621 11.1004 21.6773 10.9108 21.7558C10.7212 21.8344 10.518 21.8748 10.3128 21.8748C10.1076 21.8748 9.90438 21.8344 9.71479 21.7558C9.5252 21.6773 9.35293 21.5621 9.20783 21.417L2.21369 14.3858C1.92119 14.0928 1.7569 13.6957 1.7569 13.2818C1.7569 12.8678 1.92119 12.4707 2.21369 12.1777L4.55744 9.834C4.84946 9.5419 5.24526 9.37731 5.65829 9.37622C6.07131 9.37512 6.46798 9.5376 6.76154 9.82814L10.3397 13.2725L10.3504 13.2832L19.4061 4.36036C19.6989 4.06875 20.0953 3.90503 20.5086 3.90503C20.9219 3.90503 21.3183 4.06875 21.6112 4.36036L23.9549 6.66115C24.1013 6.80617 24.2175 6.97871 24.2969 7.16883C24.3763 7.35895 24.4173 7.5629 24.4176 7.76893C24.4178 7.97497 24.3774 8.17903 24.2985 8.36935C24.2196 8.55968 24.1038 8.73253 23.9578 8.87794Z" fill="white"/>
</svg>
