<svg width="142" height="26" viewBox="0 0 142 26" fill="none" xmlns="http://www.w3.org/2000/svg">
<path d="M13.5077 20.6981L19.3226 24.3902C20.0725 24.8632 20.9956 24.1594 20.7763 23.2941L19.0919 16.6715C19.0463 16.4879 19.0535 16.2952 19.1127 16.1156C19.1719 15.936 19.2807 15.7767 19.4264 15.6562L24.6414 11.3065C25.3222 10.7412 24.976 9.59895 24.0876 9.54126L17.2804 9.10283C17.0947 9.09203 16.9161 9.02735 16.7666 8.91671C16.617 8.80606 16.5029 8.65424 16.4382 8.4798L13.8999 2.08797C13.8327 1.90326 13.7103 1.74369 13.5493 1.63094C13.3883 1.51819 13.1966 1.4577 13 1.4577C12.8034 1.4577 12.6117 1.51819 12.4507 1.63094C12.2897 1.74369 12.1673 1.90326 12.1001 2.08797L9.56179 8.4798C9.4971 8.65424 9.383 8.80606 9.23343 8.91671C9.08385 9.02735 8.90529 9.09203 8.71955 9.10283L1.91237 9.54126C1.02397 9.59895 0.677844 10.7412 1.35856 11.3065L6.57356 15.6562C6.71932 15.7767 6.82806 15.936 6.88726 16.1156C6.94645 16.2952 6.9537 16.4879 6.90815 16.6715L5.35057 22.8095C5.08521 23.8479 6.19282 24.6901 7.08121 24.1248L12.4923 20.6981C12.6441 20.6016 12.8202 20.5504 13 20.5504C13.1798 20.5504 13.3559 20.6016 13.5077 20.6981Z" fill="#FAA61A" stroke="#FAA61A" stroke-width="2" stroke-linecap="round" stroke-linejoin="round"/>
<path d="M42.5077 20.6981L48.3226 24.3902C49.0725 24.8632 49.9956 24.1594 49.7763 23.2941L48.0919 16.6715C48.0463 16.4879 48.0535 16.2952 48.1127 16.1156C48.1719 15.936 48.2807 15.7767 48.4264 15.6562L53.6414 11.3065C54.3222 10.7412 53.976 9.59895 53.0876 9.54126L46.2804 9.10283C46.0947 9.09203 45.9161 9.02735 45.7666 8.91671C45.617 8.80606 45.5029 8.65424 45.4382 8.4798L42.8999 2.08797C42.8327 1.90326 42.7103 1.74369 42.5493 1.63094C42.3883 1.51819 42.1966 1.4577 42 1.4577C41.8034 1.4577 41.6117 1.51819 41.4507 1.63094C41.2897 1.74369 41.1673 1.90326 41.1001 2.08797L38.5618 8.4798C38.4971 8.65424 38.383 8.80606 38.2334 8.91671C38.0839 9.02735 37.9053 9.09203 37.7196 9.10283L30.9124 9.54126C30.024 9.59895 29.6778 10.7412 30.3586 11.3065L35.5736 15.6562C35.7193 15.7767 35.8281 15.936 35.8873 16.1156C35.9465 16.2952 35.9537 16.4879 35.9081 16.6715L34.3506 22.8095C34.0852 23.8479 35.1928 24.6901 36.0812 24.1248L41.4923 20.6981C41.6441 20.6016 41.8202 20.5504 42 20.5504C42.1798 20.5504 42.3559 20.6016 42.5077 20.6981Z" fill="#FAA61A" stroke="#FAA61A" stroke-width="2" stroke-linecap="round" stroke-linejoin="round"/>
<path d="M71.5077 20.6981L77.3226 24.3902C78.0725 24.8632 78.9956 24.1594 78.7763 23.2941L77.0919 16.6715C77.0463 16.4879 77.0535 16.2952 77.1127 16.1156C77.1719 15.936 77.2807 15.7767 77.4264 15.6562L82.6414 11.3065C83.3222 10.7412 82.976 9.59895 82.0876 9.54126L75.2804 9.10283C75.0947 9.09203 74.9161 9.02735 74.7666 8.91671C74.617 8.80606 74.5029 8.65424 74.4382 8.4798L71.8999 2.08797C71.8327 1.90326 71.7103 1.74369 71.5493 1.63094C71.3883 1.51819 71.1966 1.4577 71 1.4577C70.8034 1.4577 70.6117 1.51819 70.4507 1.63094C70.2897 1.74369 70.1673 1.90326 70.1001 2.08797L67.5618 8.4798C67.4971 8.65424 67.383 8.80606 67.2334 8.91671C67.0839 9.02735 66.9053 9.09203 66.7196 9.10283L59.9124 9.54126C59.024 9.59895 58.6778 10.7412 59.3586 11.3065L64.5736 15.6562C64.7193 15.7767 64.8281 15.936 64.8873 16.1156C64.9465 16.2952 64.9537 16.4879 64.9081 16.6715L63.3506 22.8095C63.0852 23.8479 64.1928 24.6901 65.0812 24.1248L70.4923 20.6981C70.6441 20.6016 70.8202 20.5504 71 20.5504C71.1798 20.5504 71.3559 20.6016 71.5077 20.6981Z" fill="#FAA61A" stroke="#FAA61A" stroke-width="2" stroke-linecap="round" stroke-linejoin="round"/>
<path d="M100.508 20.6981L106.323 24.3902C107.073 24.8632 107.996 24.1594 107.776 23.2941L106.092 16.6715C106.046 16.4879 106.054 16.2952 106.113 16.1156C106.172 15.936 106.281 15.7767 106.426 15.6562L111.641 11.3065C112.322 10.7412 111.976 9.59895 111.088 9.54126L104.28 9.10283C104.095 9.09203 103.916 9.02735 103.767 8.91671C103.617 8.80606 103.503 8.65424 103.438 8.4798L100.9 2.08797C100.833 1.90326 100.71 1.74369 100.549 1.63094C100.388 1.51819 100.197 1.4577 100 1.4577C99.8034 1.4577 99.6117 1.51819 99.4507 1.63094C99.2897 1.74369 99.1673 1.90326 99.1001 2.08797L96.5618 8.4798C96.4971 8.65424 96.383 8.80606 96.2334 8.91671C96.0839 9.02735 95.9053 9.09203 95.7196 9.10283L88.9124 9.54126C88.024 9.59895 87.6778 10.7412 88.3586 11.3065L93.5736 15.6562C93.7193 15.7767 93.8281 15.936 93.8873 16.1156C93.9465 16.2952 93.9537 16.4879 93.9081 16.6715L92.3506 22.8095C92.0852 23.8479 93.1928 24.6901 94.0812 24.1248L99.4923 20.6981C99.6441 20.6016 99.8202 20.5504 100 20.5504C100.18 20.5504 100.356 20.6016 100.508 20.6981Z" fill="#FAA61A" stroke="#FAA61A" stroke-width="2" stroke-linecap="round" stroke-linejoin="round"/>
<path d="M129.508 20.6981L135.323 24.3902C136.073 24.8632 136.996 24.1594 136.776 23.2941L135.092 16.6715C135.046 16.4879 135.054 16.2952 135.113 16.1156C135.172 15.936 135.281 15.7767 135.426 15.6562L140.641 11.3065C141.322 10.7412 140.976 9.59895 140.088 9.54126L133.28 9.10283C133.095 9.09203 132.916 9.02735 132.767 8.91671C132.617 8.80606 132.503 8.65424 132.438 8.4798L129.9 2.08797C129.833 1.90326 129.71 1.74369 129.549 1.63094C129.388 1.51819 129.197 1.4577 129 1.4577C128.803 1.4577 128.612 1.51819 128.451 1.63094C128.29 1.74369 128.167 1.90326 128.1 2.08797L125.562 8.4798C125.497 8.65424 125.383 8.80606 125.233 8.91671C125.084 9.02735 124.905 9.09203 124.72 9.10283L117.912 9.54126C117.024 9.59895 116.678 10.7412 117.359 11.3065L122.574 15.6562C122.719 15.7767 122.828 15.936 122.887 16.1156C122.946 16.2952 122.954 16.4879 122.908 16.6715L121.351 22.8095C121.085 23.8479 122.193 24.6901 123.081 24.1248L128.492 20.6981C128.644 20.6016 128.82 20.5504 129 20.5504C129.18 20.5504 129.356 20.6016 129.508 20.6981Z" fill="#FAA61A" stroke="#FAA61A" stroke-width="2" stroke-linecap="round" stroke-linejoin="round"/>
</svg>
